# File created by Blade
# Date/Time:  Fri Jan 16 19:49:56 2015
# Frame Rate: 120.000 fps
#------------------------------------------------------
:FULLY-SPECIFIED
:DEGREES
802
root 19.316449 35.445296 -19.902455 -173.370565 -1.114581 -179.941354
Spine -19.014323 -1.968895 0.426645
Head 7.113224 -0.098640 0.657171
LeftShoulder -2.713518 -40.046609 9.744948
LeftArm 13.849873 23.303160 -13.644326
LeftForeArm 21.139328 -0.000000 0.817679
LeftHand -4.455496 -0.000000 -3.059579
LeftHandThumb1 -26.253704 0.000000 33.147579
RightShoulder -5.255033 -0.027884 -5.401465
RightArm 22.474100 15.634255 16.239629
RightForeArm -39.014491 -0.000000 8.465946
RightHand -1.124254 0.000000 11.310030
RightHandThumb1 -24.326973 -0.000000 -32.862282
LeftUpLeg -1.467034 4.357903 3.017337
LeftLeg -3.617571 -0.000000 0.000000
LeftFoot -20.392131 27.259561 -12.509707
LeftToeBase 28.313535 -0.000000 -0.000000
RightUpLeg -1.432236 -2.404949 -5.310117
RightLeg -0.341027 -0.000000 0.000000
RightFoot -22.419117 -17.409103 18.331876
RightToeBase 22.637882 -0.000000 -0.000000
803
root 19.287094 35.446507 -19.925545 -173.318314 -1.250476 -179.989408
Spine -19.112649 -2.146042 0.442421
Head 7.166687 -0.058126 0.668341
LeftShoulder -2.925266 -40.034205 10.129444
LeftArm 13.717065 23.030850 -13.123404
LeftForeArm 21.331007 0.000000 0.781526
LeftHand -4.475891 -0.000000 -3.124965
LeftHandThumb1 -26.253704 0.000000 33.147579
RightShoulder -5.424791 -0.034634 -5.690603
RightArm 22.119089 16.188455 15.720972
RightForeArm -39.289636 -0.000000 8.357490
RightHand -1.189977 -0.000000 11.314057
RightHandThumb1 -24.326973 -0.000000 -32.862282
LeftUpLeg -1.466331 4.290186 2.920583
LeftLeg -3.696525 -0.000000 0.000000
LeftFoot -20.360681 27.277114 -12.519092
LeftToeBase 28.307995 -0.000000 -0.000000
RightUpLeg -1.453377 -2.771822 -5.381738
RightLeg -0.260151 -0.000000 0.000000
RightFoot -22.432582 -17.137343 18.498042
RightToeBase 22.357256 -0.000000 -0.000000
804
root 19.257946 35.447879 -19.948615 -173.236196 -1.383850 -180.024713
Spine -19.241538 -2.284501 0.461333
Head 7.238004 -0.039347 0.683673
LeftShoulder -3.080592 -40.041274 10.456671
LeftArm 13.555565 22.730026 -12.612845
LeftForeArm 21.772441 -0.000000 0.775299
LeftHand -4.613261 -0.000000 -3.118002
LeftHandThumb1 -26.253704 0.000000 33.147579
RightShoulder -5.617155 -0.075577 -5.973077
RightArm 21.729730 16.817393 15.212506
RightForeArm -39.405751 -0.000000 8.235304
RightHand -1.151859 -0.000000 11.237133
RightHandThumb1 -24.326973 -0.000000 -32.862282
LeftUpLeg -1.491879 4.279622 2.839382
LeftLeg -3.784213 -0.000000 0.000000
LeftFoot -20.313814 27.252522 -12.506277
LeftToeBase 28.172385 -0.000000 -0.000000
RightUpLeg -1.517532 -3.097935 -5.439863
RightLeg -0.157371 -0.000000 0.000000
RightFoot -22.451963 -16.926666 18.601488
RightToeBase 22.494725 -0.000000 -0.000000
805
root 19.225412 35.449698 -19.970653 -173.132807 -1.534176 -180.071206
Spine -19.395141 -2.411028 0.476025
Head 7.343701 -0.085057 0.634489
LeftShoulder -3.258187 -39.996804 10.792024
LeftArm 13.453668 22.592224 -12.111719
LeftForeArm 21.964490 0.000000 0.762723
LeftHand -4.744998 -0.000000 -3.036897
LeftHandThumb1 -26.253704 0.000000 33.147579
RightShoulder -5.836165 -0.092943 -6.245630
RightArm 21.385881 17.250122 14.630181
RightForeArm -39.455151 0.000000 8.001191
RightHand -1.320286 -0.000000 11.249655
RightHandThumb1 -24.326973 -0.000000 -32.862282
LeftUpLeg -1.546688 4.307307 2.741054
LeftLeg -3.862302 -0.000000 0.000000
LeftFoot -20.238555 27.112325 -12.491409
LeftToeBase 28.098485 -0.000000 -0.000000
RightUpLeg -1.623367 -3.416708 -5.509583
RightLeg -0.013645 -0.000000 0.000000
RightFoot -22.465279 -16.752604 18.657761
RightToeBase 22.265101 -0.000000 -0.000000
806
root 19.195103 35.452759 -19.991416 -173.027209 -1.694356 -180.107444
Spine -19.561068 -2.581551 0.510524
Head 7.439989 -0.080274 0.656960
LeftShoulder -3.485126 -39.886493 11.134812
LeftArm 13.408962 22.443112 -11.570003
LeftForeArm 22.152785 -0.000000 0.712699
LeftHand -4.758235 -0.000000 -3.229637
LeftHandThumb1 -26.253704 0.000000 33.147579
RightShoulder -5.969414 -0.154791 -6.503486
RightArm 20.910050 17.854542 14.081408
RightForeArm -39.518030 -0.000000 7.944225
RightHand -1.359278 -0.000000 11.340220
RightHandThumb1 -24.326973 -0.000000 -32.862282
LeftUpLeg -1.591039 4.331717 2.655234
LeftLeg -3.976108 -0.000000 0.000000
LeftFoot -20.140086 26.974804 -12.504824
LeftToeBase 28.047681 -0.000000 -0.000000
RightUpLeg -1.736350 -3.710419 -5.563289
RightLeg 0.121673 -0.000000 -0.000000
RightFoot -22.451440 -16.630550 18.747297
RightToeBase 22.390996 -0.000000 -0.000000
807
root 19.164961 35.455557 -20.016252 -172.907891 -1.872718 -180.131462
Spine -19.743373 -2.733830 0.562339
Head 7.516677 -0.113884 0.637211
LeftShoulder -3.664043 -39.862566 11.445578
LeftArm 13.281261 22.335676 -11.084777
LeftForeArm 22.280227 -0.000000 0.692555
LeftHand -4.780939 0.000000 -3.271676
LeftHandThumb1 -26.253704 0.000000 33.147579
RightShoulder -6.156180 -0.199348 -6.799289
RightArm 20.491342 18.412094 13.600501
RightForeArm -39.474958 -0.000000 7.781922
RightHand -1.373246 -0.000000 11.317428
RightHandThumb1 -24.326973 -0.000000 -32.862282
LeftUpLeg -1.634506 4.427389 2.582810
LeftLeg -4.111566 -0.000000 0.000000
LeftFoot -20.037675 26.728761 -12.524935
LeftToeBase 28.018109 -0.000000 -0.000000
RightUpLeg -1.868243 -4.078306 -5.603286
RightLeg 0.271889 -0.000000 -0.000000
RightFoot -22.383286 -16.469005 18.808297
RightToeBase 22.824752 -0.000000 -0.000000
808
root 19.134051 35.457196 -20.040863 -172.790344 -2.030668 -180.192257
Spine -19.907607 -2.844298 0.532972
Head 7.594763 -0.201180 0.656575
LeftShoulder -3.824440 -39.826710 11.751772
LeftArm 13.174282 22.117513 -10.611403
LeftForeArm 22.476592 -0.000000 0.705499
LeftHand -4.926767 -0.000000 -3.261023
LeftHandThumb1 -26.253704 0.000000 33.147579
RightShoulder -6.402504 -0.260454 -7.043707
RightArm 20.080318 18.976228 13.072726
RightForeArm -39.618315 -0.000000 7.684304
RightHand -1.300269 -0.000000 11.262488
RightHandThumb1 -24.326973 -0.000000 -32.862282
LeftUpLeg -1.661462 4.514319 2.474242
LeftLeg -4.265646 -0.000000 0.000000
LeftFoot -19.904078 26.503718 -12.565212
LeftToeBase 27.956516 -0.000000 -0.000000
RightUpLeg -1.998887 -4.297306 -5.684610
RightLeg 0.409072 -0.000000 -0.000000
RightFoot -22.352069 -16.486542 18.837766
RightToeBase 23.313795 -0.000000 -0.000000
809
root 19.103665 35.458797 -20.068262 -172.717720 -2.228665 -180.235063
Spine -20.030993 -3.010753 0.558587
Head 7.718245 -0.234691 0.627453
LeftShoulder -3.955367 -39.889055 12.020552
LeftArm 12.976755 22.013337 -10.137031
LeftForeArm 22.584786 -0.000000 0.706548
LeftHand -4.839156 -0.000000 -3.484860
LeftHandThumb1 -26.253704 0.000000 33.147579
RightShoulder -6.563470 -0.267970 -7.316667
RightArm 19.590573 19.542351 12.578523
RightForeArm -39.786300 -0.000000 7.625591
RightHand -1.502768 -0.000000 11.455243
RightHandThumb1 -24.326973 -0.000000 -32.862282
LeftUpLeg -1.666722 4.598508 2.390819
LeftLeg -4.376725 -0.000000 0.000000
LeftFoot -19.805409 26.255625 -12.572914
LeftToeBase 27.940331 -0.000000 -0.000000
RightUpLeg -2.048636 -4.592636 -5.748064
RightLeg 0.487400 -0.000000 -0.000000
RightFoot -22.270619 -16.452831 18.909233
RightToeBase 23.822736 -0.000000 -0.000000
810
root 19.070436 35.460032 -20.095028 -172.637082 -2.427603 -180.291130
Spine -20.156374 -3.167043 0.568749
Head 7.782001 -0.272196 0.623803
LeftShoulder -4.129215 -39.838616 12.290280
LeftArm 12.871770 21.719696 -9.695021
LeftForeArm 22.648115 -0.000000 0.670482
LeftHand -4.937480 -0.000000 -3.421520
LeftHandThumb1 -26.253704 0.000000 33.147579
RightShoulder -6.772471 -0.277693 -7.593691
RightArm 19.165793 20.062684 12.110919
RightForeArm -40.042347 -0.000000 7.486525
RightHand -1.516120 0.000000 11.395571
RightHandThumb1 -24.326973 -0.000000 -32.862282
LeftUpLeg -1.676081 4.630039 2.292014
LeftLeg -4.486834 -0.000000 0.000000
LeftFoot -19.744203 26.023756 -12.659585
LeftToeBase 27.927755 -0.000000 -0.000000
RightUpLeg -2.104311 -4.804760 -5.828864
RightLeg 0.564344 -0.000000 -0.000000
RightFoot -22.209102 -16.561377 18.937873
RightToeBase 24.505053 -0.000000 -0.000000
811
root 19.042949 35.460560 -20.122172 -172.569445 -2.644415 -180.321831
Spine -20.250812 -3.319157 0.595573
Head 7.844097 -0.341938 0.590954
LeftShoulder -4.279295 -39.890308 12.558569
LeftArm 12.704166 21.313031 -9.314440
LeftForeArm 22.820324 -0.000000 0.649588
LeftHand -4.881344 -0.000000 -3.542474
LeftHandThumb1 -26.253704 0.000000 33.147579
RightShoulder -6.965150 -0.173373 -7.888144
RightArm 18.687197 20.543745 11.663678
RightForeArm -40.173847 -0.000000 7.319318
RightHand -1.706497 -0.000000 11.495508
RightHandThumb1 -24.326973 -0.000000 -32.862282
LeftUpLeg -1.690300 4.615351 2.239648
LeftLeg -4.563089 -0.000000 0.000000
LeftFoot -19.693150 25.810474 -12.605270
LeftToeBase 28.187609 -0.000000 -0.000000
RightUpLeg -2.145480 -5.143521 -5.873940
RightLeg 0.649338 -0.000000 -0.000000
RightFoot -22.103750 -16.499025 18.960799
RightToeBase 24.842751 -0.000000 -0.000000
812
root 19.006318 35.459435 -20.157638 -172.565365 -2.924321 -180.387743
Spine -20.292598 -3.563847 0.622951
Head 7.938376 -0.394098 0.562620
LeftShoulder -4.532832 -39.887860 12.865189
LeftArm 12.616080 21.270580 -8.886154
LeftForeArm 22.659025 0.000000 0.667293
LeftHand -5.178197 0.000000 -3.501081
LeftHandThumb1 -26.253704 0.000000 33.147579
RightShoulder -7.168077 -0.208879 -8.175513
RightArm 18.277406 21.149162 11.233877
RightForeArm -40.361170 -0.000000 7.248656
RightHand -1.480382 0.000000 11.633641
RightHandThumb1 -24.326973 -0.000000 -32.862282
LeftUpLeg -1.603987 4.368300 2.160135
LeftLeg -4.693312 -0.000000 0.000000
LeftFoot -19.614027 25.721743 -12.694758
LeftToeBase 27.948454 -0.000000 -0.000000
RightUpLeg -2.046261 -5.499669 -5.968680
RightLeg 0.651086 -0.000000 -0.000000
RightFoot -22.017596 -16.468560 19.060307
RightToeBase 24.956379 -0.000000 -0.000000
813
root 18.978490 35.459195 -20.187349 -172.539060 -3.148954 -180.436750
Spine -20.333387 -3.719600 0.603043
Head 8.005574 -0.474637 0.557183
LeftShoulder -4.656711 -40.047262 13.147936
LeftArm 12.394771 20.965353 -8.559244
LeftForeArm 22.763147 -0.000000 0.642689
LeftHand -5.173440 -0.000000 -3.423428
LeftHandThumb1 -26.253704 0.000000 33.147579
RightShoulder -7.385107 -0.270669 -8.377411
RightArm 17.832323 21.657630 10.720477
RightForeArm -40.420380 0.000000 7.085431
RightHand -1.664518 0.000000 11.545984
RightHandThumb1 -24.326973 -0.000000 -32.862282
LeftUpLeg -1.599706 4.326419 2.091352
LeftLeg -4.723651 -0.000000 0.000000
LeftFoot -19.568717 25.528807 -12.713918
LeftToeBase 27.914332 -0.000000 -0.000000
RightUpLeg -1.990277 -5.798427 -6.028553
RightLeg 0.658806 -0.000000 -0.000000
RightFoot -21.941132 -16.506222 19.065001
RightToeBase 25.042265 -0.000000 -0.000000
814
root 18.952858 35.458346 -20.220020 -172.547625 -3.391494 -180.468805
Spine -20.335671 -3.898297 0.616456
Head 8.058251 -0.554656 0.567313
LeftShoulder -4.837963 -40.112369 13.433281
LeftArm 12.242326 20.559817 -8.224846
LeftForeArm 22.812751 -0.000000 0.587718
LeftHand -5.110148 0.000000 -3.438048
LeftHandThumb1 -26.253704 0.000000 33.147579
RightShoulder -7.568048 -0.240791 -8.615725
RightArm 17.350605 22.204179 10.270044
RightForeArm -40.555988 -0.000000 6.954619
RightHand -1.831223 0.000000 11.502254
RightHandThumb1 -24.326973 -0.000000 -32.862282
LeftUpLeg -1.554358 4.182105 2.052222
LeftLeg -4.758614 -0.000000 0.000000
LeftFoot -19.554154 25.419062 -12.714328
LeftToeBase 27.948740 -0.000000 -0.000000
RightUpLeg -1.880409 -6.072332 -6.070613
RightLeg 0.649665 -0.000000 -0.000000
RightFoot -21.886456 -16.587881 19.052159
RightToeBase 25.028371 -0.000000 -0.000000
